<?xml version="1.0" encoding="utf-8"?>
<!-- Generator: Adobe Illustrator 16.0.0, SVG Export Plug-In . SVG Version: 6.00 Build 0)  -->
<!DOCTYPE svg PUBLIC "-//W3C//DTD SVG 1.1//EN" "http://www.w3.org/Graphics/SVG/1.1/DTD/svg11.dtd">
<svg version="1.1" id="Layer_1" xmlns="http://www.w3.org/2000/svg" xmlns:xlink="http://www.w3.org/1999/xlink" x="0px" y="0px"
	 width="28px" height="28px" viewBox="0 0 28 28" enable-background="new 0 0 28 28" xml:space="preserve">
<g id="Agile_logo_copy_xA0_Image_1_">
	<path fill="#FFFFFF" d="M14.061,0.666L8.336,4.228l2.052,0.99c0,0-3.538,5.125,0.47,8.792c0,0,4.39,4.05,1.741,7.464
		c0,0-1.109,1.828-3.021,4.264c0,0,3.983-2.319,3.762,2.263c0,0,6.166-7.824,1.303-12.45c0,0-6.609-4.041-1.952-9.227l1.997,0.822
		L14.061,0.666z"/>
	<g enable-background="new    ">
		<path d="M22.916,23.485c-0.152-0.029-0.307-0.071-0.464-0.129c-0.159-0.055-0.298-0.141-0.419-0.254l-2.764-3.985H8.423
			l-2.831,4.071c-0.725,0.396-1.299,0.348-1.721-0.148c-0.121-0.141-0.197-0.29-0.227-0.445c-0.031-0.154-0.031-0.324,0-0.509
			l3.08-4.58c0.181-0.453,0.543-0.637,1.087-0.552l9.896-0.021l-4.869-6.808c-0.272-0.65-0.166-1.152,0.316-1.505
			c0.484-0.381,1.004-0.339,1.563,0.127l9.217,12.916c0.242,0.395,0.256,0.807,0.047,1.229c-0.272,0.283-0.477,0.445-0.611,0.488
			C23.232,23.423,23.082,23.456,22.916,23.485z"/>
	</g>
</g>
</svg>
